<?xml version='1.0' encoding='UTF-8' standalone='no'?>
<svg height="600pt" viewBox="0 0 800 600" width="800pt" xmlns="http://www.w3.org/2000/svg" xmlns:xlink="http://www.w3.org/1999/xlink">
 <title>Figure 1</title>
 <desc>
Creator: GL2PS 1.4.2, (C) 1999-2020 C. Geuzaine
For: Octave
CreationDate: Sat Nov 29 20:08:42 2025
</desc>
 <defs/>
 <polygon fill="#ffffff" points="0,0 800,0 800,600 0,600"/>
 <g>
  <polygon fill="#ffffff" points="0,600 800,600 800,0 0,0" shape-rendering="crispEdges"/>
  <clipPath id="cp00800600">
   <polygon points="0,600 800,600 800,0 0,0"/>
  </clipPath>
  <g clip-path="url(#cp00800600)">
   <polygon fill="#ffffff" points="104,45 104,534 724,534 724,45" shape-rendering="crispEdges"/>
   <polyline fill="none" points="104,534 104,527.8" stroke="#262626" stroke-linecap="butt" stroke-linejoin="miter" stroke-width="0.5"/>
   <polyline fill="none" points="104,45 104,51.2" stroke="#262626" stroke-linecap="butt" stroke-linejoin="miter" stroke-width="0.5"/>
   <polyline fill="none" points="192.571,534 192.571,527.8" stroke="#262626" stroke-linecap="butt" stroke-linejoin="miter" stroke-width="0.5"/>
   <polyline fill="none" points="192.571,45 192.571,51.2" stroke="#262626" stroke-linecap="butt" stroke-linejoin="miter" stroke-width="0.5"/>
   <polyline fill="none" points="281.143,534 281.143,527.8" stroke="#262626" stroke-linecap="butt" stroke-linejoin="miter" stroke-width="0.5"/>
   <polyline fill="none" points="281.143,45 281.143,51.2" stroke="#262626" stroke-linecap="butt" stroke-linejoin="miter" stroke-width="0.5"/>
   <polyline fill="none" points="369.714,534 369.714,527.8" stroke="#262626" stroke-linecap="butt" stroke-linejoin="miter" stroke-width="0.5"/>
   <polyline fill="none" points="369.714,45 369.714,51.2" stroke="#262626" stroke-linecap="butt" stroke-linejoin="miter" stroke-width="0.5"/>
   <polyline fill="none" points="458.286,534 458.286,527.8" stroke="#262626" stroke-linecap="butt" stroke-linejoin="miter" stroke-width="0.5"/>
   <polyline fill="none" points="458.286,45 458.286,51.2" stroke="#262626" stroke-linecap="butt" stroke-linejoin="miter" stroke-width="0.5"/>
   <polyline fill="none" points="546.857,534 546.857,527.8" stroke="#262626" stroke-linecap="butt" stroke-linejoin="miter" stroke-width="0.5"/>
   <polyline fill="none" points="546.857,45 546.857,51.2" stroke="#262626" stroke-linecap="butt" stroke-linejoin="miter" stroke-width="0.5"/>
   <polyline fill="none" points="635.429,534 635.429,527.8" stroke="#262626" stroke-linecap="butt" stroke-linejoin="miter" stroke-width="0.5"/>
   <polyline fill="none" points="635.429,45 635.429,51.2" stroke="#262626" stroke-linecap="butt" stroke-linejoin="miter" stroke-width="0.5"/>
   <polyline fill="none" points="724,534 724,527.8" stroke="#262626" stroke-linecap="butt" stroke-linejoin="miter" stroke-width="0.5"/>
   <polyline fill="none" points="724,45 724,51.2" stroke="#262626" stroke-linecap="butt" stroke-linejoin="miter" stroke-width="0.5"/>
   <g font-family="FreeSans" font-size="16.6667" font-style="normal" font-weight="normal" transform="translate(99.5,559.5) rotate(-0,4.5,-13)" xml:space="preserve">
    <text fill="rgb(38,38,38)" x="0 " y="-0">0</text>
   </g>
   <g font-family="FreeSans" font-size="16.6667" font-style="normal" font-weight="normal" transform="translate(188.071,559.5) rotate(-0,4.5,-13)" xml:space="preserve">
    <text fill="rgb(38,38,38)" x="0 " y="-0">5</text>
   </g>
   <g font-family="FreeSans" font-size="16.6667" font-style="normal" font-weight="normal" transform="translate(272.143,559.5) rotate(-0,9,-13)" xml:space="preserve">
    <text fill="rgb(38,38,38)" x="0 9 " y="-0">10</text>
   </g>
   <g font-family="FreeSans" font-size="16.6667" font-style="normal" font-weight="normal" transform="translate(360.714,559.5) rotate(-0,9,-13)" xml:space="preserve">
    <text fill="rgb(38,38,38)" x="0 9 " y="-0">15</text>
   </g>
   <g font-family="FreeSans" font-size="16.6667" font-style="normal" font-weight="normal" transform="translate(449.286,559.5) rotate(-0,9,-13)" xml:space="preserve">
    <text fill="rgb(38,38,38)" x="0 9 " y="-0">20</text>
   </g>
   <g font-family="FreeSans" font-size="16.6667" font-style="normal" font-weight="normal" transform="translate(537.857,559.5) rotate(-0,9,-13)" xml:space="preserve">
    <text fill="rgb(38,38,38)" x="0 9 " y="-0">25</text>
   </g>
   <g font-family="FreeSans" font-size="16.6667" font-style="normal" font-weight="normal" transform="translate(626.429,559.5) rotate(-0,9,-13)" xml:space="preserve">
    <text fill="rgb(38,38,38)" x="0 9 " y="-0">30</text>
   </g>
   <g font-family="FreeSans" font-size="16.6667" font-style="normal" font-weight="normal" transform="translate(715,559.5) rotate(-0,9,-13)" xml:space="preserve">
    <text fill="rgb(38,38,38)" x="0 9 " y="-0">35</text>
   </g>
   <polyline fill="none" points="104,534 110.2,534" stroke="#262626" stroke-linecap="butt" stroke-linejoin="miter" stroke-width="0.5"/>
   <polyline fill="none" points="724,534 717.8,534" stroke="#262626" stroke-linecap="butt" stroke-linejoin="miter" stroke-width="0.5"/>
   <polyline fill="none" points="104,464.143 110.2,464.143" stroke="#262626" stroke-linecap="butt" stroke-linejoin="miter" stroke-width="0.5"/>
   <polyline fill="none" points="724,464.143 717.8,464.143" stroke="#262626" stroke-linecap="butt" stroke-linejoin="miter" stroke-width="0.5"/>
   <polyline fill="none" points="104,394.286 110.2,394.286" stroke="#262626" stroke-linecap="butt" stroke-linejoin="miter" stroke-width="0.5"/>
   <polyline fill="none" points="724,394.286 717.8,394.286" stroke="#262626" stroke-linecap="butt" stroke-linejoin="miter" stroke-width="0.5"/>
   <polyline fill="none" points="104,324.429 110.2,324.429" stroke="#262626" stroke-linecap="butt" stroke-linejoin="miter" stroke-width="0.5"/>
   <polyline fill="none" points="724,324.429 717.8,324.429" stroke="#262626" stroke-linecap="butt" stroke-linejoin="miter" stroke-width="0.5"/>
   <polyline fill="none" points="104,254.571 110.2,254.571" stroke="#262626" stroke-linecap="butt" stroke-linejoin="miter" stroke-width="0.5"/>
   <polyline fill="none" points="724,254.571 717.8,254.571" stroke="#262626" stroke-linecap="butt" stroke-linejoin="miter" stroke-width="0.5"/>
   <polyline fill="none" points="104,184.714 110.2,184.714" stroke="#262626" stroke-linecap="butt" stroke-linejoin="miter" stroke-width="0.5"/>
   <polyline fill="none" points="724,184.714 717.8,184.714" stroke="#262626" stroke-linecap="butt" stroke-linejoin="miter" stroke-width="0.5"/>
   <polyline fill="none" points="104,114.857 110.2,114.857" stroke="#262626" stroke-linecap="butt" stroke-linejoin="miter" stroke-width="0.5"/>
   <polyline fill="none" points="724,114.857 717.8,114.857" stroke="#262626" stroke-linecap="butt" stroke-linejoin="miter" stroke-width="0.5"/>
   <polyline fill="none" points="104,45 110.2,45" stroke="#262626" stroke-linecap="butt" stroke-linejoin="miter" stroke-width="0.5"/>
   <polyline fill="none" points="724,45 717.8,45" stroke="#262626" stroke-linecap="butt" stroke-linejoin="miter" stroke-width="0.5"/>
   <g font-family="FreeSans" font-size="16.6667" font-style="normal" font-weight="normal" transform="translate(86.6667,540.5) rotate(-0,9,-6.5)" xml:space="preserve">
    <text fill="rgb(38,38,38)" x="0 " y="-0">0</text>
   </g>
   <g font-family="FreeSans" font-size="16.6667" font-style="normal" font-weight="normal" transform="translate(77.6667,470.643) rotate(-0,18,-6.5)" xml:space="preserve">
    <text fill="rgb(38,38,38)" x="0 9 " y="-0">20</text>
   </g>
   <g font-family="FreeSans" font-size="16.6667" font-style="normal" font-weight="normal" transform="translate(77.6667,400.786) rotate(-0,18,-6.5)" xml:space="preserve">
    <text fill="rgb(38,38,38)" x="0 9 " y="-0">40</text>
   </g>
   <g font-family="FreeSans" font-size="16.6667" font-style="normal" font-weight="normal" transform="translate(77.6667,330.929) rotate(-0,18,-6.5)" xml:space="preserve">
    <text fill="rgb(38,38,38)" x="0 9 " y="-0">60</text>
   </g>
   <g font-family="FreeSans" font-size="16.6667" font-style="normal" font-weight="normal" transform="translate(77.6667,261.071) rotate(-0,18,-6.5)" xml:space="preserve">
    <text fill="rgb(38,38,38)" x="0 9 " y="-0">80</text>
   </g>
   <g font-family="FreeSans" font-size="16.6667" font-style="normal" font-weight="normal" transform="translate(68.6667,191.214) rotate(-0,27,-6.5)" xml:space="preserve">
    <text fill="rgb(38,38,38)" x="0 9 18 " y="-0">100</text>
   </g>
   <g font-family="FreeSans" font-size="16.6667" font-style="normal" font-weight="normal" transform="translate(68.6667,121.357) rotate(-0,27,-6.5)" xml:space="preserve">
    <text fill="rgb(38,38,38)" x="0 9 18 " y="-0">120</text>
   </g>
   <g font-family="FreeSans" font-size="16.6667" font-style="normal" font-weight="normal" transform="translate(68.6667,51.5) rotate(-0,27,-6.5)" xml:space="preserve">
    <text fill="rgb(38,38,38)" x="0 9 18 " y="-0">140</text>
   </g>
   <polyline fill="none" points="104,534 724,534" stroke="#262626" stroke-dasharray="16,0" stroke-linecap="square" stroke-linejoin="miter" stroke-width="0.5"/>
   <polyline fill="none" points="104,45 724,45" stroke="#262626" stroke-dasharray="16,0" stroke-linecap="square" stroke-linejoin="miter" stroke-width="0.5"/>
   <polyline fill="none" points="104,534 104,45" stroke="#262626" stroke-dasharray="16,0" stroke-linecap="square" stroke-linejoin="miter" stroke-width="0.5"/>
   <polyline fill="none" points="724,534 724,45" stroke="#262626" stroke-dasharray="16,0" stroke-linecap="square" stroke-linejoin="miter" stroke-width="0.5"/>
   <g font-family="FreeSans" font-size="18.3333" font-style="normal" font-weight="normal" transform="translate(361,583.5) rotate(-0,53,-19)" xml:space="preserve">
    <text fill="rgb(38,38,38)" x="0 17 29 34 46 58 69 79 84 90 100 " y="-4">WAITS+1 (1)</text>
   </g>
   <g font-family="FreeSans" font-size="18.3333" font-style="normal" font-weight="normal" transform="translate(-68.8333,289.5) rotate(-90,132.5,0)" xml:space="preserve">
    <text fill="rgb(38,38,38)" x="0 10 20 30 35 51 64 73 78 91 95 105 114 123 128 141 150 159 163 173 182 187 192 197 209 215 225 235 244 249 259 " y="-4">500 MHz Clock Cycles / Transfer</text>
   </g>
   <polyline fill="none" points="107,465.468 106.427,467.231 104.927,468.321 103.073,468.321 101.573,467.231 101,465.468 101.573,463.705 103.073,462.615 104.927,462.615 106.427,463.705 107,465.468" stroke="#ff0000" stroke-linecap="round" stroke-linejoin="round" stroke-width="0.5"/>
   <polyline fill="none" points="142.429,453.855 141.856,455.619 140.356,456.708 138.502,456.708 137.002,455.619 136.429,453.855 137.002,452.092 138.502,451.002 140.356,451.002 141.856,452.092 142.429,453.855" stroke="#ff0000" stroke-linecap="round" stroke-linejoin="round" stroke-width="0.5"/>
   <polyline fill="none" points="160.143,447.233 159.57,448.996 158.07,450.086 156.216,450.086 154.716,448.996 154.143,447.233 154.716,445.469 156.216,444.38 158.07,444.38 159.57,445.469 160.143,447.233" stroke="#ff0000" stroke-linecap="round" stroke-linejoin="round" stroke-width="0.5"/>
   <polyline fill="none" points="177.857,439.239 177.284,441.003 175.784,442.092 173.93,442.092 172.43,441.003 171.857,439.239 172.43,437.476 173.93,436.386 175.784,436.386 177.284,437.476 177.857,439.239" stroke="#ff0000" stroke-linecap="round" stroke-linejoin="round" stroke-width="0.5"/>
   <polyline fill="none" points="195.571,432.136 194.998,433.899 193.498,434.989 191.644,434.989 190.144,433.899 189.571,432.136 190.144,430.372 191.644,429.283 193.498,429.283 194.998,430.372 195.571,432.136" stroke="#ff0000" stroke-linecap="round" stroke-linejoin="round" stroke-width="0.5"/>
   <polyline fill="none" points="213.286,424.974 212.713,426.738 211.213,427.828 209.359,427.828 207.859,426.738 207.286,424.974 207.859,423.211 209.359,422.121 211.213,422.121 212.713,423.211 213.286,424.974" stroke="#ff0000" stroke-linecap="round" stroke-linejoin="round" stroke-width="0.5"/>
   <polyline fill="none" points="231,418.785 230.427,420.549 228.927,421.638 227.073,421.638 225.573,420.549 225,418.785 225.573,417.022 227.073,415.932 228.927,415.932 230.427,417.022 231,418.785" stroke="#ff0000" stroke-linecap="round" stroke-linejoin="round" stroke-width="0.5"/>
   <polyline fill="none" points="248.714,411.487 248.141,413.251 246.641,414.341 244.787,414.341 243.287,413.251 242.714,411.487 243.287,409.724 244.787,408.634 246.641,408.634 248.141,409.724 248.714,411.487" stroke="#ff0000" stroke-linecap="round" stroke-linejoin="round" stroke-width="0.5"/>
   <polyline fill="none" points="266.429,404.273 265.856,406.036 264.356,407.126 262.501,407.126 261.001,406.036 260.429,404.273 261.001,402.51 262.501,401.42 264.356,401.42 265.856,402.51 266.429,404.273" stroke="#ff0000" stroke-linecap="round" stroke-linejoin="round" stroke-width="0.5"/>
   <polyline fill="none" points="284.143,397.025 283.57,398.788 282.07,399.878 280.216,399.878 278.716,398.788 278.143,397.025 278.716,395.261 280.216,394.172 282.07,394.172 283.57,395.261 284.143,397.025" stroke="#ff0000" stroke-linecap="round" stroke-linejoin="round" stroke-width="0.5"/>
   <polyline fill="none" points="301.857,388.932 301.284,390.696 299.784,391.785 297.93,391.785 296.43,390.696 295.857,388.932 296.43,387.169 297.93,386.079 299.784,386.079 301.284,387.169 301.857,388.932" stroke="#ff0000" stroke-linecap="round" stroke-linejoin="round" stroke-width="0.5"/>
   <polyline fill="none" points="319.571,381.921 318.998,383.684 317.498,384.774 315.644,384.774 314.144,383.684 313.571,381.921 314.144,380.158 315.644,379.068 317.498,379.068 318.998,380.158 319.571,381.921" stroke="#ff0000" stroke-linecap="round" stroke-linejoin="round" stroke-width="0.5"/>
   <polyline fill="none" points="337.286,375.01 336.713,376.774 335.213,377.863 333.359,377.863 331.859,376.774 331.286,375.01 331.859,373.247 333.359,372.157 335.213,372.157 336.713,373.247 337.286,375.01" stroke="#ff0000" stroke-linecap="round" stroke-linejoin="round" stroke-width="0.5"/>
   <polyline fill="none" points="355,368.748 354.427,370.511 352.927,371.601 351.073,371.601 349.573,370.511 349,368.748 349.573,366.984 351.073,365.894 352.927,365.894 354.427,366.984 355,368.748" stroke="#ff0000" stroke-linecap="round" stroke-linejoin="round" stroke-width="0.5"/>
   <polyline fill="none" points="372.714,362.255 372.141,364.018 370.641,365.108 368.787,365.108 367.287,364.018 366.714,362.255 367.287,360.491 368.787,359.402 370.641,359.402 372.141,360.491 372.714,362.255" stroke="#ff0000" stroke-linecap="round" stroke-linejoin="round" stroke-width="0.5"/>
   <polyline fill="none" points="390.429,355.395 389.856,357.159 388.356,358.248 386.501,358.248 385.001,357.159 384.429,355.395 385.001,353.632 386.501,352.542 388.356,352.542 389.856,353.632 390.429,355.395" stroke="#ff0000" stroke-linecap="round" stroke-linejoin="round" stroke-width="0.5"/>
   <polyline fill="none" points="408.143,348.642 407.57,350.405 406.07,351.495 404.216,351.495 402.716,350.405 402.143,348.642 402.716,346.878 404.216,345.788 406.07,345.788 407.57,346.878 408.143,348.642" stroke="#ff0000" stroke-linecap="round" stroke-linejoin="round" stroke-width="0.5"/>
   <polyline fill="none" points="425.857,340.762 425.284,342.525 423.784,343.615 421.93,343.615 420.43,342.525 419.857,340.762 420.43,338.999 421.93,337.909 423.784,337.909 425.284,338.999 425.857,340.762" stroke="#ff0000" stroke-linecap="round" stroke-linejoin="round" stroke-width="0.5"/>
   <polyline fill="none" points="443.571,333.133 442.999,334.897 441.499,335.987 439.644,335.987 438.144,334.897 437.571,333.133 438.144,331.37 439.644,330.28 441.499,330.28 442.999,331.37 443.571,333.133" stroke="#ff0000" stroke-linecap="round" stroke-linejoin="round" stroke-width="0.5"/>
   <polyline fill="none" points="461.286,326.308 460.713,328.071 459.213,329.161 457.359,329.161 455.859,328.071 455.286,326.308 455.859,324.545 457.359,323.455 459.213,323.455 460.713,324.545 461.286,326.308" stroke="#ff0000" stroke-linecap="round" stroke-linejoin="round" stroke-width="0.5"/>
   <polyline fill="none" points="479,319.535 478.427,321.299 476.927,322.389 475.073,322.389 473.573,321.299 473,319.535 473.573,317.772 475.073,316.682 476.927,316.682 478.427,317.772 479,319.535" stroke="#ff0000" stroke-linecap="round" stroke-linejoin="round" stroke-width="0.5"/>
   <polyline fill="none" points="496.714,312.736 496.141,314.499 494.641,315.589 492.787,315.589 491.287,314.499 490.714,312.736 491.287,310.972 492.787,309.883 494.641,309.883 496.141,310.972 496.714,312.736" stroke="#ff0000" stroke-linecap="round" stroke-linejoin="round" stroke-width="0.5"/>
   <polyline fill="none" points="514.429,306.473 513.856,308.236 512.356,309.326 510.501,309.326 509.001,308.236 508.429,306.473 509.001,304.71 510.501,303.62 512.356,303.62 513.856,304.71 514.429,306.473" stroke="#ff0000" stroke-linecap="round" stroke-linejoin="round" stroke-width="0.5"/>
   <polyline fill="none" points="532.143,299.569 531.57,301.333 530.07,302.422 528.216,302.422 526.716,301.333 526.143,299.569 526.716,297.806 528.216,296.716 530.07,296.716 531.57,297.806 532.143,299.569" stroke="#ff0000" stroke-linecap="round" stroke-linejoin="round" stroke-width="0.5"/>
   <polyline fill="none" points="549.857,291.301 549.284,293.064 547.784,294.154 545.93,294.154 544.43,293.064 543.857,291.301 544.43,289.538 545.93,288.448 547.784,288.448 549.284,289.538 549.857,291.301" stroke="#ff0000" stroke-linecap="round" stroke-linejoin="round" stroke-width="0.5"/>
   <polyline fill="none" points="567.571,280.594 566.998,282.357 565.498,283.447 563.644,283.447 562.144,282.357 561.571,280.594 562.144,278.831 563.644,277.741 565.498,277.741 566.998,278.831 567.571,280.594" stroke="#ff0000" stroke-linecap="round" stroke-linejoin="round" stroke-width="0.5"/>
   <polyline fill="none" points="585.286,278.008 584.713,279.772 583.213,280.862 581.359,280.862 579.859,279.772 579.286,278.008 579.859,276.245 581.359,275.155 583.213,275.155 584.713,276.245 585.286,278.008" stroke="#ff0000" stroke-linecap="round" stroke-linejoin="round" stroke-width="0.5"/>
   <polyline fill="none" points="603,271.285 602.427,273.049 600.927,274.138 599.073,274.138 597.573,273.049 597,271.285 597.573,269.522 599.073,268.432 600.927,268.432 602.427,269.522 603,271.285" stroke="#ff0000" stroke-linecap="round" stroke-linejoin="round" stroke-width="0.5"/>
   <polyline fill="none" points="620.714,263.645 620.141,265.408 618.641,266.498 616.787,266.498 615.287,265.408 614.714,263.645 615.287,261.881 616.787,260.792 618.641,260.792 620.141,261.881 620.714,263.645" stroke="#ff0000" stroke-linecap="round" stroke-linejoin="round" stroke-width="0.5"/>
   <polyline fill="none" points="638.429,257.203 637.856,258.966 636.356,260.056 634.502,260.056 633.002,258.966 632.429,257.203 633.002,255.44 634.502,254.35 636.356,254.35 637.856,255.44 638.429,257.203" stroke="#ff0000" stroke-linecap="round" stroke-linejoin="round" stroke-width="0.5"/>
   <polyline fill="none" points="656.143,250.279 655.57,252.042 654.07,253.132 652.216,253.132 650.716,252.042 650.143,250.279 650.716,248.515 652.216,247.426 654.07,247.426 655.57,248.515 656.143,250.279" stroke="#ff0000" stroke-linecap="round" stroke-linejoin="round" stroke-width="0.5"/>
   <polyline fill="none" points="673.857,243.605 673.284,245.368 671.784,246.458 669.93,246.458 668.43,245.368 667.857,243.605 668.43,241.842 669.93,240.752 671.784,240.752 673.284,241.842 673.857,243.605" stroke="#ff0000" stroke-linecap="round" stroke-linejoin="round" stroke-width="0.5"/>
   <polyline fill="none" points="104,466.369 139.429,452.398 157.143,445.412 174.857,438.427 192.571,431.441 210.286,424.456 228,417.47 245.714,410.484 263.429,403.499 281.143,396.513 298.857,389.528 316.571,382.542 334.286,375.556 352,368.571 369.714,361.585 387.429,354.6 405.143,347.614 422.857,340.628 440.571,333.643 458.286,326.657 476,319.672 493.714,312.686 511.429,305.7 529.143,298.715 546.857,291.729 564.571,284.744 582.286,277.758 600,270.773 617.714,263.787 635.429,256.801 653.143,249.816 670.857,242.83" stroke="#ff0000" stroke-linecap="butt" stroke-linejoin="round" stroke-width="0.5"/>
   <polyline fill="none" points="107,496.326 106.427,498.089 104.927,499.179 103.073,499.179 101.573,498.089 101,496.326 101.573,494.562 103.073,493.472 104.927,493.472 106.427,494.562 107,496.326" stroke="#00ff00" stroke-linecap="round" stroke-linejoin="round" stroke-width="0.5"/>
   <polyline fill="none" points="142.429,489.611 141.856,491.374 140.356,492.464 138.502,492.464 137.002,491.374 136.429,489.611 137.002,487.848 138.502,486.758 140.356,486.758 141.856,487.848 142.429,489.611" stroke="#00ff00" stroke-linecap="round" stroke-linejoin="round" stroke-width="0.5"/>
   <polyline fill="none" points="160.143,486.736 159.57,488.499 158.07,489.589 156.216,489.589 154.716,488.499 154.143,486.736 154.716,484.972 156.216,483.882 158.07,483.882 159.57,484.972 160.143,486.736" stroke="#00ff00" stroke-linecap="round" stroke-linejoin="round" stroke-width="0.5"/>
   <polyline fill="none" points="177.857,482.323 177.284,484.087 175.784,485.177 173.93,485.177 172.43,484.087 171.857,482.323 172.43,480.56 173.93,479.47 175.784,479.47 177.284,480.56 177.857,482.323" stroke="#00ff00" stroke-linecap="round" stroke-linejoin="round" stroke-width="0.5"/>
   <polyline fill="none" points="195.571,479.011 194.998,480.775 193.498,481.865 191.644,481.865 190.144,480.775 189.571,479.011 190.144,477.248 191.644,476.158 193.498,476.158 194.998,477.248 195.571,479.011" stroke="#00ff00" stroke-linecap="round" stroke-linejoin="round" stroke-width="0.5"/>
   <polyline fill="none" points="213.286,476.24 212.713,478.003 211.213,479.093 209.359,479.093 207.859,478.003 207.286,476.24 207.859,474.477 209.359,473.387 211.213,473.387 212.713,474.477 213.286,476.24" stroke="#00ff00" stroke-linecap="round" stroke-linejoin="round" stroke-width="0.5"/>
   <polyline fill="none" points="231,472.87 230.427,474.633 228.927,475.723 227.073,475.723 225.573,474.633 225,472.87 225.573,471.107 227.073,470.017 228.927,470.017 230.427,471.107 231,472.87" stroke="#00ff00" stroke-linecap="round" stroke-linejoin="round" stroke-width="0.5"/>
   <polyline fill="none" points="248.714,467.266 248.141,469.029 246.641,470.119 244.787,470.119 243.287,469.029 242.714,467.266 243.287,465.502 244.787,464.412 246.641,464.412 248.141,465.502 248.714,467.266" stroke="#00ff00" stroke-linecap="round" stroke-linejoin="round" stroke-width="0.5"/>
   <polyline fill="none" points="266.429,464.394 265.856,466.157 264.356,467.247 262.501,467.247 261.001,466.157 260.429,464.394 261.001,462.63 262.501,461.54 264.356,461.54 265.856,462.63 266.429,464.394" stroke="#00ff00" stroke-linecap="round" stroke-linejoin="round" stroke-width="0.5"/>
   <polyline fill="none" points="284.143,460.846 283.57,462.609 282.07,463.699 280.216,463.699 278.716,462.609 278.143,460.846 278.716,459.083 280.216,457.993 282.07,457.993 283.57,459.083 284.143,460.846" stroke="#00ff00" stroke-linecap="round" stroke-linejoin="round" stroke-width="0.5"/>
   <polyline fill="none" points="301.857,457.099 301.284,458.863 299.784,459.952 297.93,459.952 296.43,458.863 295.857,457.099 296.43,455.336 297.93,454.246 299.784,454.246 301.284,455.336 301.857,457.099" stroke="#00ff00" stroke-linecap="round" stroke-linejoin="round" stroke-width="0.5"/>
   <polyline fill="none" points="319.571,453.99 318.998,455.753 317.498,456.843 315.644,456.843 314.144,455.753 313.571,453.99 314.144,452.227 315.644,451.137 317.498,451.137 318.998,452.227 319.571,453.99" stroke="#00ff00" stroke-linecap="round" stroke-linejoin="round" stroke-width="0.5"/>
   <polyline fill="none" points="337.286,447.214 336.713,448.977 335.213,450.067 333.359,450.067 331.859,448.977 331.286,447.214 331.859,445.451 333.359,444.361 335.213,444.361 336.713,445.451 337.286,447.214" stroke="#00ff00" stroke-linecap="round" stroke-linejoin="round" stroke-width="0.5"/>
   <polyline fill="none" points="355,445.925 354.427,447.688 352.927,448.778 351.073,448.778 349.573,447.688 349,445.925 349.573,444.161 351.073,443.072 352.927,443.072 354.427,444.161 355,445.925" stroke="#00ff00" stroke-linecap="round" stroke-linejoin="round" stroke-width="0.5"/>
   <polyline fill="none" points="372.714,444.04 372.141,445.804 370.641,446.893 368.787,446.893 367.287,445.804 366.714,444.04 367.287,442.277 368.787,441.187 370.641,441.187 372.141,442.277 372.714,444.04" stroke="#00ff00" stroke-linecap="round" stroke-linejoin="round" stroke-width="0.5"/>
   <polyline fill="none" points="390.429,440.883 389.856,442.647 388.356,443.736 386.501,443.736 385.001,442.647 384.429,440.883 385.001,439.12 386.501,438.03 388.356,438.03 389.856,439.12 390.429,440.883" stroke="#00ff00" stroke-linecap="round" stroke-linejoin="round" stroke-width="0.5"/>
   <polyline fill="none" points="408.143,436.238 407.57,438.001 406.07,439.091 404.216,439.091 402.716,438.001 402.143,436.238 402.716,434.474 404.216,433.384 406.07,433.384 407.57,434.474 408.143,436.238" stroke="#00ff00" stroke-linecap="round" stroke-linejoin="round" stroke-width="0.5"/>
   <polyline fill="none" points="425.857,432.458 425.284,434.221 423.784,435.311 421.93,435.311 420.43,434.221 419.857,432.458 420.43,430.695 421.93,429.605 423.784,429.605 425.284,430.695 425.857,432.458" stroke="#00ff00" stroke-linecap="round" stroke-linejoin="round" stroke-width="0.5"/>
   <polyline fill="none" points="443.571,428.167 442.999,429.93 441.499,431.02 439.644,431.02 438.144,429.93 437.571,428.167 438.144,426.404 439.644,425.314 441.499,425.314 442.999,426.404 443.571,428.167" stroke="#00ff00" stroke-linecap="round" stroke-linejoin="round" stroke-width="0.5"/>
   <polyline fill="none" points="461.286,424.553 460.713,426.317 459.213,427.406 457.359,427.406 455.859,426.317 455.286,424.553 455.859,422.79 457.359,421.7 459.213,421.7 460.713,422.79 461.286,424.553" stroke="#00ff00" stroke-linecap="round" stroke-linejoin="round" stroke-width="0.5"/>
   <polyline fill="none" points="479,421.221 478.427,422.984 476.927,424.074 475.073,424.074 473.573,422.984 473,421.221 473.573,419.457 475.073,418.367 476.927,418.367 478.427,419.457 479,421.221" stroke="#00ff00" stroke-linecap="round" stroke-linejoin="round" stroke-width="0.5"/>
   <polyline fill="none" points="496.714,417.845 496.141,419.609 494.641,420.699 492.787,420.699 491.287,419.609 490.714,417.845 491.287,416.082 492.787,414.992 494.641,414.992 496.141,416.082 496.714,417.845" stroke="#00ff00" stroke-linecap="round" stroke-linejoin="round" stroke-width="0.5"/>
   <polyline fill="none" points="514.429,414.784 513.856,416.547 512.356,417.637 510.501,417.637 509.001,416.547 508.429,414.784 509.001,413.021 510.501,411.931 512.356,411.931 513.856,413.021 514.429,414.784" stroke="#00ff00" stroke-linecap="round" stroke-linejoin="round" stroke-width="0.5"/>
   <polyline fill="none" points="532.143,411.491 531.57,413.254 530.07,414.344 528.216,414.344 526.716,413.254 526.143,411.491 526.716,409.727 528.216,408.638 530.07,408.638 531.57,409.727 532.143,411.491" stroke="#00ff00" stroke-linecap="round" stroke-linejoin="round" stroke-width="0.5"/>
   <polyline fill="none" points="549.857,406.751 549.284,408.515 547.784,409.604 545.93,409.604 544.43,408.515 543.857,406.751 544.43,404.988 545.93,403.898 547.784,403.898 549.284,404.988 549.857,406.751" stroke="#00ff00" stroke-linecap="round" stroke-linejoin="round" stroke-width="0.5"/>
   <polyline fill="none" points="567.571,403.635 566.998,405.399 565.498,406.488 563.644,406.488 562.144,405.399 561.571,403.635 562.144,401.872 563.644,400.782 565.498,400.782 566.998,401.872 567.571,403.635" stroke="#00ff00" stroke-linecap="round" stroke-linejoin="round" stroke-width="0.5"/>
   <polyline fill="none" points="585.286,400.792 584.713,402.556 583.213,403.645 581.359,403.645 579.859,402.556 579.286,400.792 579.859,399.029 581.359,397.939 583.213,397.939 584.713,399.029 585.286,400.792" stroke="#00ff00" stroke-linecap="round" stroke-linejoin="round" stroke-width="0.5"/>
   <polyline fill="none" points="603,398.289 602.427,400.052 600.927,401.142 599.073,401.142 597.573,400.052 597,398.289 597.573,396.525 599.073,395.435 600.927,395.435 602.427,396.525 603,398.289" stroke="#00ff00" stroke-linecap="round" stroke-linejoin="round" stroke-width="0.5"/>
   <polyline fill="none" points="620.714,394.693 620.141,396.457 618.641,397.547 616.787,397.547 615.287,396.457 614.714,394.693 615.287,392.93 616.787,391.84 618.641,391.84 620.141,392.93 620.714,394.693" stroke="#00ff00" stroke-linecap="round" stroke-linejoin="round" stroke-width="0.5"/>
   <polyline fill="none" points="638.429,389.57 637.856,391.333 636.356,392.423 634.502,392.423 633.002,391.333 632.429,389.57 633.002,387.807 634.502,386.717 636.356,386.717 637.856,387.807 638.429,389.57" stroke="#00ff00" stroke-linecap="round" stroke-linejoin="round" stroke-width="0.5"/>
   <polyline fill="none" points="656.143,386.591 655.57,388.354 654.07,389.444 652.216,389.444 650.716,388.354 650.143,386.591 650.716,384.827 652.216,383.737 654.07,383.737 655.57,384.827 656.143,386.591" stroke="#00ff00" stroke-linecap="round" stroke-linejoin="round" stroke-width="0.5"/>
   <polyline fill="none" points="673.857,383.057 673.284,384.82 671.784,385.91 669.93,385.91 668.43,384.82 667.857,383.057 668.43,381.293 669.93,380.204 671.784,380.204 673.284,381.293 673.857,383.057" stroke="#00ff00" stroke-linecap="round" stroke-linejoin="round" stroke-width="0.5"/>
   <polyline fill="none" points="104,495.231 139.429,488.228 157.143,484.727 174.857,481.225 192.571,477.724 210.286,474.222 228,470.721 245.714,467.22 263.429,463.718 281.143,460.217 298.857,456.715 316.571,453.214 334.286,449.712 352,446.211 369.714,442.709 387.429,439.208 405.143,435.707 422.857,432.205 440.571,428.704 458.286,425.202 476,421.701 493.714,418.199 511.429,414.698 529.143,411.197 546.857,407.695 564.571,404.194 582.286,400.692 600,397.191 617.714,393.689 635.429,390.188 653.143,386.686 670.857,383.185" stroke="#00ff00" stroke-linecap="butt" stroke-linejoin="round" stroke-width="0.5"/>
   <polyline fill="none" points="107,492.485 106.427,494.248 104.927,495.338 103.073,495.338 101.573,494.248 101,492.485 101.573,490.721 103.073,489.632 104.927,489.632 106.427,490.721 107,492.485" stroke="#0000ff" stroke-linecap="round" stroke-linejoin="round" stroke-width="0.5"/>
   <polyline fill="none" points="142.429,492.434 141.856,494.197 140.356,495.287 138.502,495.287 137.002,494.197 136.429,492.434 137.002,490.67 138.502,489.58 140.356,489.58 141.856,490.67 142.429,492.434" stroke="#0000ff" stroke-linecap="round" stroke-linejoin="round" stroke-width="0.5"/>
   <polyline fill="none" points="160.143,492.149 159.57,493.912 158.07,495.002 156.216,495.002 154.716,493.912 154.143,492.149 154.716,490.385 156.216,489.296 158.07,489.296 159.57,490.385 160.143,492.149" stroke="#0000ff" stroke-linecap="round" stroke-linejoin="round" stroke-width="0.5"/>
   <polyline fill="none" points="177.857,492.417 177.284,494.18 175.784,495.27 173.93,495.27 172.43,494.18 171.857,492.417 172.43,490.653 173.93,489.563 175.784,489.563 177.284,490.653 177.857,492.417" stroke="#0000ff" stroke-linecap="round" stroke-linejoin="round" stroke-width="0.5"/>
   <polyline fill="none" points="195.571,492.041 194.998,493.805 193.498,494.895 191.644,494.895 190.144,493.805 189.571,492.041 190.144,490.278 191.644,489.188 193.498,489.188 194.998,490.278 195.571,492.041" stroke="#0000ff" stroke-linecap="round" stroke-linejoin="round" stroke-width="0.5"/>
   <polyline fill="none" points="213.286,492.145 212.713,493.909 211.213,494.999 209.359,494.999 207.859,493.909 207.286,492.145 207.859,490.382 209.359,489.292 211.213,489.292 212.713,490.382 213.286,492.145" stroke="#0000ff" stroke-linecap="round" stroke-linejoin="round" stroke-width="0.5"/>
   <polyline fill="none" points="231,489.915 230.427,491.678 228.927,492.768 227.073,492.768 225.573,491.678 225,489.915 225.573,488.151 227.073,487.061 228.927,487.061 230.427,488.151 231,489.915" stroke="#0000ff" stroke-linecap="round" stroke-linejoin="round" stroke-width="0.5"/>
   <polyline fill="none" points="248.714,485.922 248.141,487.685 246.641,488.775 244.787,488.775 243.287,487.685 242.714,485.922 243.287,484.159 244.787,483.069 246.641,483.069 248.141,484.159 248.714,485.922" stroke="#0000ff" stroke-linecap="round" stroke-linejoin="round" stroke-width="0.5"/>
   <polyline fill="none" points="266.429,486.58 265.856,488.344 264.356,489.434 262.501,489.434 261.001,488.344 260.429,486.58 261.001,484.817 262.501,483.727 264.356,483.727 265.856,484.817 266.429,486.58" stroke="#0000ff" stroke-linecap="round" stroke-linejoin="round" stroke-width="0.5"/>
   <polyline fill="none" points="284.143,486.118 283.57,487.882 282.07,488.971 280.216,488.971 278.716,487.882 278.143,486.118 278.716,484.355 280.216,483.265 282.07,483.265 283.57,484.355 284.143,486.118" stroke="#0000ff" stroke-linecap="round" stroke-linejoin="round" stroke-width="0.5"/>
   <polyline fill="none" points="301.857,483.476 301.284,485.24 299.784,486.33 297.93,486.33 296.43,485.24 295.857,483.476 296.43,481.713 297.93,480.623 299.784,480.623 301.284,481.713 301.857,483.476" stroke="#0000ff" stroke-linecap="round" stroke-linejoin="round" stroke-width="0.5"/>
   <polyline fill="none" points="319.571,481.911 318.998,483.674 317.498,484.764 315.644,484.764 314.144,483.674 313.571,481.911 314.144,480.147 315.644,479.058 317.498,479.058 318.998,480.147 319.571,481.911" stroke="#0000ff" stroke-linecap="round" stroke-linejoin="round" stroke-width="0.5"/>
   <polyline fill="none" points="337.286,480.647 336.713,482.41 335.213,483.5 333.359,483.5 331.859,482.41 331.286,480.647 331.859,478.884 333.359,477.794 335.213,477.794 336.713,478.884 337.286,480.647" stroke="#0000ff" stroke-linecap="round" stroke-linejoin="round" stroke-width="0.5"/>
   <polyline fill="none" points="355,478.79 354.427,480.553 352.927,481.643 351.073,481.643 349.573,480.553 349,478.79 349.573,477.026 351.073,475.937 352.927,475.937 354.427,477.026 355,478.79" stroke="#0000ff" stroke-linecap="round" stroke-linejoin="round" stroke-width="0.5"/>
   <polyline fill="none" points="372.714,475.836 372.141,477.599 370.641,478.689 368.787,478.689 367.287,477.599 366.714,475.836 367.287,474.072 368.787,472.983 370.641,472.983 372.141,474.072 372.714,475.836" stroke="#0000ff" stroke-linecap="round" stroke-linejoin="round" stroke-width="0.5"/>
   <polyline fill="none" points="390.429,472.399 389.856,474.163 388.356,475.252 386.501,475.252 385.001,474.163 384.429,472.399 385.001,470.636 386.501,469.546 388.356,469.546 389.856,470.636 390.429,472.399" stroke="#0000ff" stroke-linecap="round" stroke-linejoin="round" stroke-width="0.5"/>
   <polyline fill="none" points="408.143,468.799 407.57,470.562 406.07,471.652 404.216,471.652 402.716,470.562 402.143,468.799 402.716,467.036 404.216,465.946 406.07,465.946 407.57,467.036 408.143,468.799" stroke="#0000ff" stroke-linecap="round" stroke-linejoin="round" stroke-width="0.5"/>
   <polyline fill="none" points="425.857,465.139 425.284,466.902 423.784,467.992 421.93,467.992 420.43,466.902 419.857,465.139 420.43,463.375 421.93,462.286 423.784,462.286 425.284,463.375 425.857,465.139" stroke="#0000ff" stroke-linecap="round" stroke-linejoin="round" stroke-width="0.5"/>
   <polyline fill="none" points="443.571,461.516 442.999,463.28 441.499,464.37 439.644,464.37 438.144,463.28 437.571,461.516 438.144,459.753 439.644,458.663 441.499,458.663 442.999,459.753 443.571,461.516" stroke="#0000ff" stroke-linecap="round" stroke-linejoin="round" stroke-width="0.5"/>
   <polyline fill="none" points="461.286,457.962 460.713,459.726 459.213,460.815 457.359,460.815 455.859,459.726 455.286,457.962 455.859,456.199 457.359,455.109 459.213,455.109 460.713,456.199 461.286,457.962" stroke="#0000ff" stroke-linecap="round" stroke-linejoin="round" stroke-width="0.5"/>
   <polyline fill="none" points="479,454.761 478.427,456.524 476.927,457.614 475.073,457.614 473.573,456.524 473,454.761 473.573,452.998 475.073,451.908 476.927,451.908 478.427,452.998 479,454.761" stroke="#0000ff" stroke-linecap="round" stroke-linejoin="round" stroke-width="0.5"/>
   <polyline fill="none" points="496.714,452.806 496.141,454.57 494.641,455.66 492.787,455.66 491.287,454.57 490.714,452.806 491.287,451.043 492.787,449.953 494.641,449.953 496.141,451.043 496.714,452.806" stroke="#0000ff" stroke-linecap="round" stroke-linejoin="round" stroke-width="0.5"/>
   <polyline fill="none" points="514.429,449.687 513.856,451.45 512.356,452.54 510.501,452.54 509.001,451.45 508.429,449.687 509.001,447.924 510.501,446.834 512.356,446.834 513.856,447.924 514.429,449.687" stroke="#0000ff" stroke-linecap="round" stroke-linejoin="round" stroke-width="0.5"/>
   <polyline fill="none" points="532.143,446.193 531.57,447.956 530.07,449.046 528.216,449.046 526.716,447.956 526.143,446.193 526.716,444.429 528.216,443.339 530.07,443.339 531.57,444.429 532.143,446.193" stroke="#0000ff" stroke-linecap="round" stroke-linejoin="round" stroke-width="0.5"/>
   <polyline fill="none" points="549.857,442.7 549.284,444.463 547.784,445.553 545.93,445.553 544.43,444.463 543.857,442.7 544.43,440.936 545.93,439.846 547.784,439.846 549.284,440.936 549.857,442.7" stroke="#0000ff" stroke-linecap="round" stroke-linejoin="round" stroke-width="0.5"/>
   <polyline fill="none" points="567.571,439.212 566.998,440.975 565.498,442.065 563.644,442.065 562.144,440.975 561.571,439.212 562.144,437.449 563.644,436.359 565.498,436.359 566.998,437.449 567.571,439.212" stroke="#0000ff" stroke-linecap="round" stroke-linejoin="round" stroke-width="0.5"/>
   <polyline fill="none" points="585.286,435.716 584.713,437.479 583.213,438.569 581.359,438.569 579.859,437.479 579.286,435.716 579.859,433.952 581.359,432.862 583.213,432.862 584.713,433.952 585.286,435.716" stroke="#0000ff" stroke-linecap="round" stroke-linejoin="round" stroke-width="0.5"/>
   <polyline fill="none" points="603,432.185 602.427,433.949 600.927,435.038 599.073,435.038 597.573,433.949 597,432.185 597.573,430.422 599.073,429.332 600.927,429.332 602.427,430.422 603,432.185" stroke="#0000ff" stroke-linecap="round" stroke-linejoin="round" stroke-width="0.5"/>
   <polyline fill="none" points="620.714,428.723 620.141,430.486 618.641,431.576 616.787,431.576 615.287,430.486 614.714,428.723 615.287,426.96 616.787,425.87 618.641,425.87 620.141,426.96 620.714,428.723" stroke="#0000ff" stroke-linecap="round" stroke-linejoin="round" stroke-width="0.5"/>
   <polyline fill="none" points="638.429,425.237 637.856,427 636.356,428.09 634.502,428.09 633.002,427 632.429,425.237 633.002,423.474 634.502,422.384 636.356,422.384 637.856,423.474 638.429,425.237" stroke="#0000ff" stroke-linecap="round" stroke-linejoin="round" stroke-width="0.5"/>
   <polyline fill="none" points="656.143,421.748 655.57,423.511 654.07,424.601 652.216,424.601 650.716,423.511 650.143,421.748 650.716,419.984 652.216,418.894 654.07,418.894 655.57,419.984 656.143,421.748" stroke="#0000ff" stroke-linecap="round" stroke-linejoin="round" stroke-width="0.5"/>
   <polyline fill="none" points="673.857,418.251 673.284,420.015 671.784,421.104 669.93,421.104 668.43,420.015 667.857,418.251 668.43,416.488 669.93,415.398 671.784,415.398 673.284,416.488 673.857,418.251" stroke="#0000ff" stroke-linecap="round" stroke-linejoin="round" stroke-width="0.5"/>
   <polyline fill="none" points="104,523.926 139.429,517.379 157.143,514.106 174.857,510.833 192.571,507.56 210.286,504.286 228,501.013 245.714,497.74 263.429,494.467 281.143,491.194 298.857,487.92 316.571,484.647 334.286,481.374 352,478.101 369.714,474.828 387.429,471.554 405.143,468.281 422.857,465.008 440.571,461.735 458.286,458.462 476,455.188 493.714,451.915 511.429,448.642 529.143,445.369 546.857,442.095 564.571,438.822 582.286,435.549 600,432.276 617.714,429.003 635.429,425.729 653.143,422.456 670.857,419.183" stroke="#0000ff" stroke-linecap="butt" stroke-linejoin="round" stroke-width="0.5"/>
   <polyline fill="none" points="107,278.624 106.427,280.387 104.927,281.477 103.073,281.477 101.573,280.387 101,278.624 101.573,276.861 103.073,275.771 104.927,275.771 106.427,276.861 107,278.624" stroke="#00ffff" stroke-linecap="round" stroke-linejoin="round" stroke-width="0.5"/>
   <polyline fill="none" points="142.429,271.632 141.856,273.395 140.356,274.485 138.502,274.485 137.002,273.395 136.429,271.632 137.002,269.868 138.502,268.778 140.356,268.778 141.856,269.868 142.429,271.632" stroke="#00ffff" stroke-linecap="round" stroke-linejoin="round" stroke-width="0.5"/>
   <polyline fill="none" points="160.143,267.642 159.57,269.406 158.07,270.496 156.216,270.496 154.716,269.406 154.143,267.642 154.716,265.879 156.216,264.789 158.07,264.789 159.57,265.879 160.143,267.642" stroke="#00ffff" stroke-linecap="round" stroke-linejoin="round" stroke-width="0.5"/>
   <polyline fill="none" points="177.857,264.078 177.284,265.841 175.784,266.931 173.93,266.931 172.43,265.841 171.857,264.078 172.43,262.315 173.93,261.225 175.784,261.225 177.284,262.315 177.857,264.078" stroke="#00ffff" stroke-linecap="round" stroke-linejoin="round" stroke-width="0.5"/>
   <polyline fill="none" points="195.571,261.185 194.998,262.949 193.498,264.039 191.644,264.039 190.144,262.949 189.571,261.185 190.144,259.422 191.644,258.332 193.498,258.332 194.998,259.422 195.571,261.185" stroke="#00ffff" stroke-linecap="round" stroke-linejoin="round" stroke-width="0.5"/>
   <polyline fill="none" points="213.286,257.505 212.713,259.268 211.213,260.358 209.359,260.358 207.859,259.268 207.286,257.505 207.859,255.742 209.359,254.652 211.213,254.652 212.713,255.742 213.286,257.505" stroke="#00ffff" stroke-linecap="round" stroke-linejoin="round" stroke-width="0.5"/>
   <polyline fill="none" points="231,252.978 230.427,254.742 228.927,255.832 227.073,255.832 225.573,254.742 225,252.978 225.573,251.215 227.073,250.125 228.927,250.125 230.427,251.215 231,252.978" stroke="#00ffff" stroke-linecap="round" stroke-linejoin="round" stroke-width="0.5"/>
   <polyline fill="none" points="248.714,249.757 248.141,251.52 246.641,252.61 244.787,252.61 243.287,251.52 242.714,249.757 243.287,247.993 244.787,246.904 246.641,246.904 248.141,247.993 248.714,249.757" stroke="#00ffff" stroke-linecap="round" stroke-linejoin="round" stroke-width="0.5"/>
   <polyline fill="none" points="266.429,244.77 265.856,246.533 264.356,247.623 262.501,247.623 261.001,246.533 260.429,244.77 261.001,243.007 262.501,241.917 264.356,241.917 265.856,243.007 266.429,244.77" stroke="#00ffff" stroke-linecap="round" stroke-linejoin="round" stroke-width="0.5"/>
   <polyline fill="none" points="284.143,241.777 283.57,243.54 282.07,244.63 280.216,244.63 278.716,243.54 278.143,241.777 278.716,240.013 280.216,238.924 282.07,238.924 283.57,240.013 284.143,241.777" stroke="#00ffff" stroke-linecap="round" stroke-linejoin="round" stroke-width="0.5"/>
   <polyline fill="none" points="301.857,235.484 301.284,237.247 299.784,238.337 297.93,238.337 296.43,237.247 295.857,235.484 296.43,233.72 297.93,232.63 299.784,232.63 301.284,233.72 301.857,235.484" stroke="#00ffff" stroke-linecap="round" stroke-linejoin="round" stroke-width="0.5"/>
   <polyline fill="none" points="319.571,227.619 318.998,229.383 317.498,230.473 315.644,230.473 314.144,229.383 313.571,227.619 314.144,225.856 315.644,224.766 317.498,224.766 318.998,225.856 319.571,227.619" stroke="#00ffff" stroke-linecap="round" stroke-linejoin="round" stroke-width="0.5"/>
   <polyline fill="none" points="337.286,221.667 336.713,223.431 335.213,224.52 333.359,224.52 331.859,223.431 331.286,221.667 331.859,219.904 333.359,218.814 335.213,218.814 336.713,219.904 337.286,221.667" stroke="#00ffff" stroke-linecap="round" stroke-linejoin="round" stroke-width="0.5"/>
   <polyline fill="none" points="355,214.061 354.427,215.824 352.927,216.914 351.073,216.914 349.573,215.824 349,214.061 349.573,212.297 351.073,211.208 352.927,211.208 354.427,212.297 355,214.061" stroke="#00ffff" stroke-linecap="round" stroke-linejoin="round" stroke-width="0.5"/>
   <polyline fill="none" points="372.714,207.13 372.141,208.893 370.641,209.983 368.787,209.983 367.287,208.893 366.714,207.13 367.287,205.366 368.787,204.276 370.641,204.276 372.141,205.366 372.714,207.13" stroke="#00ffff" stroke-linecap="round" stroke-linejoin="round" stroke-width="0.5"/>
   <polyline fill="none" points="390.429,199.564 389.856,201.327 388.356,202.417 386.501,202.417 385.001,201.327 384.429,199.564 385.001,197.801 386.501,196.711 388.356,196.711 389.856,197.801 390.429,199.564" stroke="#00ffff" stroke-linecap="round" stroke-linejoin="round" stroke-width="0.5"/>
   <polyline fill="none" points="408.143,190.912 407.57,192.675 406.07,193.765 404.216,193.765 402.716,192.675 402.143,190.912 402.716,189.149 404.216,188.059 406.07,188.059 407.57,189.149 408.143,190.912" stroke="#00ffff" stroke-linecap="round" stroke-linejoin="round" stroke-width="0.5"/>
   <polyline fill="none" points="425.857,190.331 425.284,192.094 423.784,193.184 421.93,193.184 420.43,192.094 419.857,190.331 420.43,188.567 421.93,187.477 423.784,187.477 425.284,188.567 425.857,190.331" stroke="#00ffff" stroke-linecap="round" stroke-linejoin="round" stroke-width="0.5"/>
   <polyline fill="none" points="443.571,179.033 442.999,180.797 441.499,181.886 439.644,181.886 438.144,180.797 437.571,179.033 438.144,177.27 439.644,176.18 441.499,176.18 442.999,177.27 443.571,179.033" stroke="#00ffff" stroke-linecap="round" stroke-linejoin="round" stroke-width="0.5"/>
   <polyline fill="none" points="461.286,172.76 460.713,174.524 459.213,175.614 457.359,175.614 455.859,174.524 455.286,172.76 455.859,170.997 457.359,169.907 459.213,169.907 460.713,170.997 461.286,172.76" stroke="#00ffff" stroke-linecap="round" stroke-linejoin="round" stroke-width="0.5"/>
   <polyline fill="none" points="479,166.005 478.427,167.768 476.927,168.858 475.073,168.858 473.573,167.768 473,166.005 473.573,164.242 475.073,163.152 476.927,163.152 478.427,164.242 479,166.005" stroke="#00ffff" stroke-linecap="round" stroke-linejoin="round" stroke-width="0.5"/>
   <polyline fill="none" points="496.714,157.766 496.141,159.529 494.641,160.619 492.787,160.619 491.287,159.529 490.714,157.766 491.287,156.002 492.787,154.913 494.641,154.913 496.141,156.002 496.714,157.766" stroke="#00ffff" stroke-linecap="round" stroke-linejoin="round" stroke-width="0.5"/>
   <polyline fill="none" points="514.429,152.127 513.856,153.891 512.356,154.981 510.501,154.981 509.001,153.891 508.429,152.127 509.001,150.364 510.501,149.274 512.356,149.274 513.856,150.364 514.429,152.127" stroke="#00ffff" stroke-linecap="round" stroke-linejoin="round" stroke-width="0.5"/>
   <polyline fill="none" points="532.143,144.105 531.57,145.868 530.07,146.958 528.216,146.958 526.716,145.868 526.143,144.105 526.716,142.341 528.216,141.252 530.07,141.252 531.57,142.341 532.143,144.105" stroke="#00ffff" stroke-linecap="round" stroke-linejoin="round" stroke-width="0.5"/>
   <polyline fill="none" points="549.857,137.777 549.284,139.541 547.784,140.63 545.93,140.63 544.43,139.541 543.857,137.777 544.43,136.014 545.93,134.924 547.784,134.924 549.284,136.014 549.857,137.777" stroke="#00ffff" stroke-linecap="round" stroke-linejoin="round" stroke-width="0.5"/>
   <polyline fill="none" points="567.571,130.288 566.998,132.052 565.498,133.142 563.644,133.142 562.144,132.052 561.571,130.288 562.144,128.525 563.644,127.435 565.498,127.435 566.998,128.525 567.571,130.288" stroke="#00ffff" stroke-linecap="round" stroke-linejoin="round" stroke-width="0.5"/>
   <polyline fill="none" points="585.286,122.165 584.713,123.929 583.213,125.018 581.359,125.018 579.859,123.929 579.286,122.165 579.859,120.402 581.359,119.312 583.213,119.312 584.713,120.402 585.286,122.165" stroke="#00ffff" stroke-linecap="round" stroke-linejoin="round" stroke-width="0.5"/>
   <polyline fill="none" points="603,115.463 602.427,117.226 600.927,118.316 599.073,118.316 597.573,117.226 597,115.463 597.573,113.699 599.073,112.609 600.927,112.609 602.427,113.699 603,115.463" stroke="#00ffff" stroke-linecap="round" stroke-linejoin="round" stroke-width="0.5"/>
   <polyline fill="none" points="620.714,105.17 620.141,106.933 618.641,108.023 616.787,108.023 615.287,106.933 614.714,105.17 615.287,103.407 616.787,102.317 618.641,102.317 620.141,103.407 620.714,105.17" stroke="#00ffff" stroke-linecap="round" stroke-linejoin="round" stroke-width="0.5"/>
   <polyline fill="none" points="638.429,105.023 637.856,106.787 636.356,107.876 634.502,107.876 633.002,106.787 632.429,105.023 633.002,103.26 634.502,102.17 636.356,102.17 637.856,103.26 638.429,105.023" stroke="#00ffff" stroke-linecap="round" stroke-linejoin="round" stroke-width="0.5"/>
   <polyline fill="none" points="656.143,102.874 655.57,104.638 654.07,105.727 652.216,105.727 650.716,104.638 650.143,102.874 650.716,101.111 652.216,100.021 654.07,100.021 655.57,101.111 656.143,102.874" stroke="#00ffff" stroke-linecap="round" stroke-linejoin="round" stroke-width="0.5"/>
   <polyline fill="none" points="673.857,89.0666 673.284,90.83 671.784,91.9198 669.93,91.9198 668.43,90.83 667.857,89.0666 668.43,87.3032 669.93,86.2134 671.784,86.2134 673.284,87.3032 673.857,89.0666" stroke="#00ffff" stroke-linecap="round" stroke-linejoin="round" stroke-width="0.5"/>
   <polyline fill="none" points="104,310.733 139.429,296.904 157.143,289.99 174.857,283.075 192.571,276.161 210.286,269.246 228,262.332 245.714,255.417 263.429,248.503 281.143,241.588 298.857,234.674 316.571,227.759 334.286,220.845 352,213.931 369.714,207.016 387.429,200.102 405.143,193.187 422.857,186.273 440.571,179.358 458.286,172.444 476,165.529 493.714,158.615 511.429,151.7 529.143,144.786 546.857,137.871 564.571,130.957 582.286,124.042 600,117.128 617.714,110.213 635.429,103.299 653.143,96.3843 670.857,89.4698" stroke="#00ffff" stroke-linecap="butt" stroke-linejoin="round" stroke-width="0.5"/>
   <polyline fill="none" points="107,318.744 106.427,320.507 104.927,321.597 103.073,321.597 101.573,320.507 101,318.744 101.573,316.981 103.073,315.891 104.927,315.891 106.427,316.981 107,318.744" stroke="#ff00ff" stroke-linecap="round" stroke-linejoin="round" stroke-width="0.5"/>
   <polyline fill="none" points="142.429,311.098 141.856,312.862 140.356,313.952 138.502,313.952 137.002,312.862 136.429,311.098 137.002,309.335 138.502,308.245 140.356,308.245 141.856,309.335 142.429,311.098" stroke="#ff00ff" stroke-linecap="round" stroke-linejoin="round" stroke-width="0.5"/>
   <polyline fill="none" points="160.143,306.891 159.57,308.654 158.07,309.744 156.216,309.744 154.716,308.654 154.143,306.891 154.716,305.128 156.216,304.038 158.07,304.038 159.57,305.128 160.143,306.891" stroke="#ff00ff" stroke-linecap="round" stroke-linejoin="round" stroke-width="0.5"/>
   <polyline fill="none" points="177.857,304.208 177.284,305.972 175.784,307.061 173.93,307.061 172.43,305.972 171.857,304.208 172.43,302.445 173.93,301.355 175.784,301.355 177.284,302.445 177.857,304.208" stroke="#ff00ff" stroke-linecap="round" stroke-linejoin="round" stroke-width="0.5"/>
   <polyline fill="none" points="195.571,300.836 194.998,302.6 193.498,303.69 191.644,303.69 190.144,302.6 189.571,300.836 190.144,299.073 191.644,297.983 193.498,297.983 194.998,299.073 195.571,300.836" stroke="#ff00ff" stroke-linecap="round" stroke-linejoin="round" stroke-width="0.5"/>
   <polyline fill="none" points="213.286,296.951 212.713,298.715 211.213,299.805 209.359,299.805 207.859,298.715 207.286,296.951 207.859,295.188 209.359,294.098 211.213,294.098 212.713,295.188 213.286,296.951" stroke="#ff00ff" stroke-linecap="round" stroke-linejoin="round" stroke-width="0.5"/>
   <polyline fill="none" points="231,292.964 230.427,294.727 228.927,295.817 227.073,295.817 225.573,294.727 225,292.964 225.573,291.201 227.073,290.111 228.927,290.111 230.427,291.201 231,292.964" stroke="#ff00ff" stroke-linecap="round" stroke-linejoin="round" stroke-width="0.5"/>
   <polyline fill="none" points="248.714,289.036 248.141,290.799 246.641,291.889 244.787,291.889 243.287,290.799 242.714,289.036 243.287,287.273 244.787,286.183 246.641,286.183 248.141,287.273 248.714,289.036" stroke="#ff00ff" stroke-linecap="round" stroke-linejoin="round" stroke-width="0.5"/>
   <polyline fill="none" points="266.429,286.033 265.856,287.796 264.356,288.886 262.501,288.886 261.001,287.796 260.429,286.033 261.001,284.269 262.501,283.18 264.356,283.18 265.856,284.269 266.429,286.033" stroke="#ff00ff" stroke-linecap="round" stroke-linejoin="round" stroke-width="0.5"/>
   <polyline fill="none" points="284.143,282.709 283.57,284.472 282.07,285.562 280.216,285.562 278.716,284.472 278.143,282.709 278.716,280.945 280.216,279.856 282.07,279.856 283.57,280.945 284.143,282.709" stroke="#ff00ff" stroke-linecap="round" stroke-linejoin="round" stroke-width="0.5"/>
   <polyline fill="none" points="301.857,279.17 301.284,280.933 299.784,282.023 297.93,282.023 296.43,280.933 295.857,279.17 296.43,277.406 297.93,276.317 299.784,276.317 301.284,277.406 301.857,279.17" stroke="#ff00ff" stroke-linecap="round" stroke-linejoin="round" stroke-width="0.5"/>
   <polyline fill="none" points="319.571,275.031 318.998,276.794 317.498,277.884 315.644,277.884 314.144,276.794 313.571,275.031 314.144,273.267 315.644,272.177 317.498,272.177 318.998,273.267 319.571,275.031" stroke="#ff00ff" stroke-linecap="round" stroke-linejoin="round" stroke-width="0.5"/>
   <polyline fill="none" points="337.286,271.173 336.713,272.936 335.213,274.026 333.359,274.026 331.859,272.936 331.286,271.173 331.859,269.409 333.359,268.32 335.213,268.32 336.713,269.409 337.286,271.173" stroke="#ff00ff" stroke-linecap="round" stroke-linejoin="round" stroke-width="0.5"/>
   <polyline fill="none" points="355,268.26 354.427,270.023 352.927,271.113 351.073,271.113 349.573,270.023 349,268.26 349.573,266.496 351.073,265.407 352.927,265.407 354.427,266.496 355,268.26" stroke="#ff00ff" stroke-linecap="round" stroke-linejoin="round" stroke-width="0.5"/>
   <polyline fill="none" points="372.714,264.842 372.141,266.605 370.641,267.695 368.787,267.695 367.287,266.605 366.714,264.842 367.287,263.079 368.787,261.989 370.641,261.989 372.141,263.079 372.714,264.842" stroke="#ff00ff" stroke-linecap="round" stroke-linejoin="round" stroke-width="0.5"/>
   <polyline fill="none" points="390.429,261.073 389.856,262.836 388.356,263.926 386.501,263.926 385.001,262.836 384.429,261.073 385.001,259.309 386.501,258.22 388.356,258.22 389.856,259.309 390.429,261.073" stroke="#ff00ff" stroke-linecap="round" stroke-linejoin="round" stroke-width="0.5"/>
   <polyline fill="none" points="408.143,257.524 407.57,259.287 406.07,260.377 404.216,260.377 402.716,259.287 402.143,257.524 402.716,255.76 404.216,254.671 406.07,254.671 407.57,255.76 408.143,257.524" stroke="#ff00ff" stroke-linecap="round" stroke-linejoin="round" stroke-width="0.5"/>
   <polyline fill="none" points="425.857,253.954 425.284,255.717 423.784,256.807 421.93,256.807 420.43,255.717 419.857,253.954 420.43,252.191 421.93,251.101 423.784,251.101 425.284,252.191 425.857,253.954" stroke="#ff00ff" stroke-linecap="round" stroke-linejoin="round" stroke-width="0.5"/>
   <polyline fill="none" points="443.571,250.55 442.999,252.313 441.499,253.403 439.644,253.403 438.144,252.313 437.571,250.55 438.144,248.786 439.644,247.697 441.499,247.697 442.999,248.786 443.571,250.55" stroke="#ff00ff" stroke-linecap="round" stroke-linejoin="round" stroke-width="0.5"/>
   <polyline fill="none" points="461.286,247.705 460.713,249.468 459.213,250.558 457.359,250.558 455.859,249.468 455.286,247.705 455.859,245.942 457.359,244.852 459.213,244.852 460.713,245.942 461.286,247.705" stroke="#ff00ff" stroke-linecap="round" stroke-linejoin="round" stroke-width="0.5"/>
   <polyline fill="none" points="479,243.25 478.427,245.014 476.927,246.104 475.073,246.104 473.573,245.014 473,243.25 473.573,241.487 475.073,240.397 476.927,240.397 478.427,241.487 479,243.25" stroke="#ff00ff" stroke-linecap="round" stroke-linejoin="round" stroke-width="0.5"/>
   <polyline fill="none" points="496.714,239.775 496.141,241.538 494.641,242.628 492.787,242.628 491.287,241.538 490.714,239.775 491.287,238.011 492.787,236.921 494.641,236.921 496.141,238.011 496.714,239.775" stroke="#ff00ff" stroke-linecap="round" stroke-linejoin="round" stroke-width="0.5"/>
   <polyline fill="none" points="514.429,236.041 513.856,237.805 512.356,238.894 510.501,238.894 509.001,237.805 508.429,236.041 509.001,234.278 510.501,233.188 512.356,233.188 513.856,234.278 514.429,236.041" stroke="#ff00ff" stroke-linecap="round" stroke-linejoin="round" stroke-width="0.5"/>
   <polyline fill="none" points="532.143,233.142 531.57,234.905 530.07,235.995 528.216,235.995 526.716,234.905 526.143,233.142 526.716,231.379 528.216,230.289 530.07,230.289 531.57,231.379 532.143,233.142" stroke="#ff00ff" stroke-linecap="round" stroke-linejoin="round" stroke-width="0.5"/>
   <polyline fill="none" points="549.857,228.945 549.284,230.708 547.784,231.798 545.93,231.798 544.43,230.708 543.857,228.945 544.43,227.181 545.93,226.091 547.784,226.091 549.284,227.181 549.857,228.945" stroke="#ff00ff" stroke-linecap="round" stroke-linejoin="round" stroke-width="0.5"/>
   <polyline fill="none" points="567.571,225.72 566.998,227.483 565.498,228.573 563.644,228.573 562.144,227.483 561.571,225.72 562.144,223.956 563.644,222.866 565.498,222.866 566.998,223.956 567.571,225.72" stroke="#ff00ff" stroke-linecap="round" stroke-linejoin="round" stroke-width="0.5"/>
   <polyline fill="none" points="585.286,222.034 584.713,223.797 583.213,224.887 581.359,224.887 579.859,223.797 579.286,222.034 579.859,220.271 581.359,219.181 583.213,219.181 584.713,220.271 585.286,222.034" stroke="#ff00ff" stroke-linecap="round" stroke-linejoin="round" stroke-width="0.5"/>
   <polyline fill="none" points="603,219.015 602.427,220.779 600.927,221.868 599.073,221.868 597.573,220.779 597,219.015 597.573,217.252 599.073,216.162 600.927,216.162 602.427,217.252 603,219.015" stroke="#ff00ff" stroke-linecap="round" stroke-linejoin="round" stroke-width="0.5"/>
   <polyline fill="none" points="620.714,214.733 620.141,216.496 618.641,217.586 616.787,217.586 615.287,216.496 614.714,214.733 615.287,212.969 616.787,211.88 618.641,211.88 620.141,212.969 620.714,214.733" stroke="#ff00ff" stroke-linecap="round" stroke-linejoin="round" stroke-width="0.5"/>
   <polyline fill="none" points="638.429,211.622 637.856,213.385 636.356,214.475 634.502,214.475 633.002,213.385 632.429,211.622 633.002,209.859 634.502,208.769 636.356,208.769 637.856,209.859 638.429,211.622" stroke="#ff00ff" stroke-linecap="round" stroke-linejoin="round" stroke-width="0.5"/>
   <polyline fill="none" points="656.143,207.06 655.57,208.823 654.07,209.913 652.216,209.913 650.716,208.823 650.143,207.06 650.716,205.296 652.216,204.207 654.07,204.207 655.57,205.296 656.143,207.06" stroke="#ff00ff" stroke-linecap="round" stroke-linejoin="round" stroke-width="0.5"/>
   <polyline fill="none" points="673.857,204.275 673.284,206.038 671.784,207.128 669.93,207.128 668.43,206.038 667.857,204.275 668.43,202.511 669.93,201.421 671.784,201.421 673.284,202.511 673.857,204.275" stroke="#ff00ff" stroke-linecap="round" stroke-linejoin="round" stroke-width="0.5"/>
   <polyline fill="none" points="104,317.863 139.429,310.766 157.143,307.217 174.857,303.669 192.571,300.12 210.286,296.572 228,293.023 245.714,289.475 263.429,285.926 281.143,282.378 298.857,278.829 316.571,275.281 334.286,271.733 352,268.184 369.714,264.636 387.429,261.087 405.143,257.539 422.857,253.99 440.571,250.442 458.286,246.893 476,243.345 493.714,239.796 511.429,236.248 529.143,232.699 546.857,229.151 564.571,225.602 582.286,222.054 600,218.505 617.714,214.957 635.429,211.408 653.143,207.86 670.857,204.311" stroke="#ff00ff" stroke-linecap="butt" stroke-linejoin="round" stroke-width="0.5"/>
  </g>
  <clipPath id="cp00800600">
   <polygon points="0,600 800,600 800,0 0,0"/>
  </clipPath>
  <g clip-path="url(#cp00800600)">
   <polygon fill="#ffffff" points="114.667,55.6667 114.667,181 462.333,181 462.333,55.6667" shape-rendering="crispEdges"/>
   <polyline fill="none" points="114.667,181 462.333,181" stroke="#262626" stroke-dasharray="16,0" stroke-linecap="square" stroke-linejoin="miter" stroke-width="0.5"/>
   <polyline fill="none" points="114.667,55.6667 462.333,55.6667" stroke="#262626" stroke-dasharray="16,0" stroke-linecap="square" stroke-linejoin="miter" stroke-width="0.5"/>
   <polyline fill="none" points="114.667,181 114.667,55.6667" stroke="#262626" stroke-dasharray="16,0" stroke-linecap="square" stroke-linejoin="miter" stroke-width="0.5"/>
   <polyline fill="none" points="462.333,181 462.333,55.6667" stroke="#262626" stroke-dasharray="16,0" stroke-linecap="square" stroke-linejoin="miter" stroke-width="0.5"/>
   <polyline fill="none" points="120,70.3334 146.667,70.3334" stroke="#ff0000" stroke-linecap="butt" stroke-linejoin="round" stroke-width="0.5"/>
   <g font-family="FreeSans" font-size="15" font-style="normal" font-weight="normal" transform="translate(152,78.3333) rotate(-0,-0,-8)" xml:space="preserve">
    <text fill="rgb(0,0,0)" x="0 8 16 21 24 32 44 52 64 68 72 80 84 92 100 108 112 120 127 135 138 146 153 157 168 176 179 183 190 194 198 206 210 217 226 234 242 246 254 262 270 274 282 289 " y="-4">peri2mem: 2.000 cycles/waits, ofs=19.363 cyc</text>
   </g>
   <polyline fill="none" points="120,94.3333 146.667,94.3333" stroke="#00ff00" stroke-linecap="butt" stroke-linejoin="round" stroke-width="0.5"/>
   <g font-family="FreeSans" font-size="15" font-style="normal" font-weight="normal" transform="translate(152,102.333) rotate(-0,-0,-8)" xml:space="preserve">
    <text fill="rgb(0,0,0)" x="0 8 16 21 24 32 40 48 51 54 58 62 70 74 82 90 98 102 110 117 125 128 136 143 147 158 166 169 173 180 184 188 196 200 207 216 224 232 236 244 252 260 264 272 279 " y="-4">peri2null: 1.002 cycles/waits, ofs=11.100 cyc</text>
   </g>
   <polyline fill="none" points="120,118.333 146.667,118.333" stroke="#0000ff" stroke-linecap="butt" stroke-linejoin="round" stroke-width="0.5"/>
   <g font-family="FreeSans" font-size="15" font-style="normal" font-weight="normal" transform="translate(152,126.333) rotate(-0,-0,-8)" xml:space="preserve">
    <text fill="rgb(0,0,0)" x="0 8 16 19 22 30 42 50 62 66 70 78 82 90 98 106 110 118 125 133 136 144 151 155 166 174 177 181 188 192 196 204 208 215 224 232 236 244 252 260 264 272 279 " y="-4">null2mem: 0.937 cycles/waits, ofs=2.884 cyc</text>
   </g>
   <polyline fill="none" points="120,142.333 146.667,142.333" stroke="#00ffff" stroke-linecap="butt" stroke-linejoin="round" stroke-width="0.5"/>
   <g font-family="FreeSans" font-size="15" font-style="normal" font-weight="normal" transform="translate(152,150.333) rotate(-0,-0,-8)" xml:space="preserve">
    <text fill="rgb(0,0,0)" x="0 12 20 32 40 52 60 72 76 80 88 92 100 108 116 120 128 135 143 146 154 161 165 176 184 187 191 198 202 206 214 218 225 234 242 250 254 262 270 278 282 290 297 " y="-4">mem2mem: 1.980 cycles/waits, ofs=63.921 cyc</text>
   </g>
   <polyline fill="none" points="120,166.333 146.667,166.333" stroke="#ff00ff" stroke-linecap="butt" stroke-linejoin="round" stroke-width="0.5"/>
   <g font-family="FreeSans" font-size="15" font-style="normal" font-weight="normal" transform="translate(152,174.333) rotate(-0,-0,-8)" xml:space="preserve">
    <text fill="rgb(0,0,0)" x="0 12 20 32 40 48 56 59 62 66 70 78 82 90 98 106 110 118 125 133 136 144 151 155 166 174 177 181 188 192 196 204 208 215 224 232 240 244 252 260 268 272 280 287 " y="-4">mem2null: 1.016 cycles/waits, ofs=61.880 cyc</text>
   </g>
  </g>
 </g>
</svg>
